<svg width="1038" height="163" viewBox="0 0 1038 163" fill="none" xmlns="http://www.w3.org/2000/svg">
<path d="M143 73C135.5 125 154.316 156.5 154.316 156.5C154.316 156.5 108.081 134.5 100.316 86.5C92.8164 40.1364 119.816 0 119.816 0H189.316C189.316 0 149.426 28.4498 143 73Z" fill="#C62727"/>
<path d="M172.5 66C193.303 117 155.5 156.5 155.5 156.5C155.5 156.5 201.735 134.5 209.5 86.5C217 40.1364 190 0 190 0H120.5C120.5 0 155.5 24.3226 172.5 66Z" fill="#E32124"/>
<path d="M45.0078 118C90 158 151.508 163 151.508 163C151.508 163 123.945 157.053 100.5 133C62 93.5 62 62 44.0078 49.4997C28.8648 38.9788 14.5078 52.9997 10.0078 57.4997C7.75614 59.7514 4.40908 63.4896 2.21776 65.974C0.785835 67.5974 0.190863 69.6896 1.20771 71.6006C4.02419 76.8936 13.4517 89.9449 45.0078 118Z" fill="#E32124"/>
<path fill-rule="evenodd" clip-rule="evenodd" d="M151.508 162.999C151.508 162.999 150.051 162.685 147.523 161.909C150.141 162.855 151.508 162.999 151.508 162.999ZM147.523 161.909C139.054 159.309 118.556 151.524 100.5 133C78.9279 110.867 69.443 91.2468 62.1076 76.0726C56.3513 64.1652 51.9187 54.9959 44.0078 49.4997C36.6426 44.3826 29.4633 45.0711 23.5137 47.6461C34.2922 40.1246 51.8349 31.6577 66.5 47.9994C74.4319 56.838 78.6659 69.3744 83.2526 82.9548C88.7854 99.3367 94.8313 117.238 108.5 132C127.681 152.716 141.224 159.633 147.523 161.909Z" fill="#C62727"/>
<path d="M262.5 118C217.508 158 156 163 156 163C156 163 183.563 157.053 207.008 133C245.508 93.5 245.508 62 263.5 49.4997C278.643 38.9788 293 52.9997 297.5 57.4997C299.752 59.7514 303.099 63.4896 305.29 65.974C306.722 67.5974 307.317 69.6896 306.3 71.6006C303.484 76.8936 294.056 89.9449 262.5 118Z" fill="#E32124"/>
<path fill-rule="evenodd" clip-rule="evenodd" d="M156 162.999C156 162.999 157.457 162.685 159.985 161.909C157.367 162.855 156 162.999 156 162.999ZM159.985 161.909C168.454 159.309 188.952 151.524 207.008 133C228.58 110.867 238.065 91.2468 245.4 76.0726C251.156 64.1652 255.589 54.9959 263.5 49.4997C270.865 44.3826 278.045 45.0711 283.994 47.6461C273.216 40.1246 255.673 31.6577 241.008 47.9994C233.076 56.838 228.842 69.3744 224.255 82.9548C218.722 99.3367 212.677 117.238 199.008 132C179.827 152.716 166.284 159.633 159.985 161.909Z" fill="#C62727"/>
<path fill-rule="evenodd" clip-rule="evenodd" d="M864.5 112C876.374 112 887 105.374 887 81.5C887 58.6259 876.374 51 864.5 51C852.626 51 842 58.6259 842 81.5C842 105.374 852.626 112 864.5 112ZM864.5 136C894.6 136 920 120.6 920 81.5C920 41.4005 894.6 27 864.5 27C834.4 27 809 41.4005 809 81.5C809 120.6 834.4 136 864.5 136Z" fill="#E32124"/>
<path d="M349 28H449V55L415 55V135H383L383 55H349V28Z" fill="#E32124"/>
<path d="M683.5 133.5V112.5H691.553C696.503 112.5 700.524 108.503 700.553 103.554L701 28.5H791.5V134H759.5V54.5H733.5L733 102C732.092 138.769 705.5 135.5 683.5 133.5Z" fill="#E32124"/>
<path d="M969 65H1006V28L1038 28V135H1006V92H969V135H937V28L969 28V65Z" fill="#E32124"/>
<path d="M464 28H551V52H496V68H548V90H496V111H553V135H464V28Z" fill="#E32124"/>
<path d="M571 28H672V135H640V55L603 55V135H571V28Z" fill="#E32124"/>
</svg>
